<?xml version="1.0" standalone="no"?>
<!DOCTYPE svg PUBLIC "-//W3C//DTD SVG 20010904//EN"
 "http://www.w3.org/TR/2001/REC-SVG-20010904/DTD/svg10.dtd">
<svg version="1.0" xmlns="http://www.w3.org/2000/svg"
 width="512.000000pt" height="512.000000pt" viewBox="0 0 512.000000 512.000000"
 preserveAspectRatio="xMidYMid meet">
<metadata>
Created by potrace 1.11, written by Peter Selinger 2001-2013
</metadata>
<g transform="translate(0.000000,512.000000) scale(0.100000,-0.100000)"
fill="#000000" stroke="none">
<path d="M377 5100 c-16 -13 -32 -41 -42 -78 -33 -117 -120 -204 -237 -237
-84 -24 -116 -72 -86 -128 16 -30 37 -44 78 -52 88 -17 179 -91 222 -180 15
-33 28 -68 28 -77 0 -9 12 -30 26 -47 19 -23 34 -31 58 -31 49 0 74 24 92 88
34 123 123 212 246 247 64 18 88 43 88 90 0 41 -30 71 -82 86 -131 35 -215
117 -254 250 -24 80 -84 111 -137 69z m109 -348 l59 -58 -60 -60 -59 -59 -57
60 -57 60 56 57 c31 32 57 58 58 58 0 0 27 -26 60 -58z"/>
<path d="M1630 4603 c-157 -16 -312 -59 -435 -120 -300 -150 -529 -417 -624
-728 -54 -179 -66 -305 -51 -525 29 -441 142 -813 359 -1190 l66 -115 188
-825 c134 -590 195 -841 214 -880 15 -30 48 -76 74 -102 156 -156 404 -154
561 4 89 91 86 76 234 965 95 566 140 816 154 843 45 87 145 133 242 110 39
-10 63 -24 98 -59 26 -26 50 -60 54 -76 5 -17 67 -386 140 -821 119 -713 135
-797 163 -856 56 -118 162 -198 297 -221 163 -28 343 68 412 218 16 34 93 355
211 872 l185 818 73 130 c242 433 356 848 358 1310 1 189 -12 280 -62 427
-130 385 -455 686 -851 788 -41 10 -124 24 -185 30 -188 19 -326 0 -565 -80
-191 -64 -266 -80 -380 -80 -109 0 -191 16 -320 61 -259 92 -431 121 -610 102z
m208 -174 c108 -12 171 -28 345 -89 147 -52 242 -69 377 -69 135 0 230 17 377
69 256 90 382 110 555 90 252 -29 464 -128 632 -297 237 -237 331 -513 306
-895 -28 -417 -137 -772 -351 -1138 l-67 -115 -186 -825 c-103 -454 -196 -845
-208 -868 -38 -80 -137 -130 -227 -117 -79 12 -143 60 -174 132 -9 21 -73 378
-142 793 -69 415 -130 778 -136 805 -37 160 -159 278 -317 306 -182 32 -366
-78 -426 -255 -9 -26 -75 -399 -146 -829 -73 -440 -138 -799 -147 -821 -39
-87 -139 -145 -231 -132 -88 12 -164 78 -190 166 -6 19 -92 397 -192 840
l-182 805 -67 115 c-212 364 -323 723 -351 1138 -26 392 73 670 323 908 172
164 369 256 603 283 101 12 115 12 222 0z"/>
<path d="M1620 4015 l0 -85 85 0 85 0 0 85 0 85 -85 0 -85 0 0 -85z"/>
<path d="M1346 4065 c-170 -70 -314 -224 -366 -393 -23 -72 -40 -170 -40 -224
l0 -38 85 0 85 0 0 38 c0 63 28 174 60 238 49 100 166 198 281 237 15 5 15 12
1 86 -18 93 -18 93 -106 56z"/>
<path d="M4631 1505 c-11 -14 -23 -40 -27 -58 -25 -118 -124 -217 -248 -248
-115 -29 -115 -149 0 -178 124 -31 211 -118 250 -251 17 -58 42 -82 89 -83 46
-1 68 22 89 94 33 116 118 201 232 235 76 22 99 43 99 92 0 53 -15 67 -93 92
-124 39 -205 121 -238 240 -19 67 -43 90 -94 90 -29 0 -43 -6 -59 -25z m120
-454 l-58 -58 -58 58 -57 58 58 59 58 59 57 -59 58 -59 -58 -58z"/>
</g>
</svg>
